<?xml version="1.0" encoding="UTF-8" standalone="no"?>
<!DOCTYPE svg PUBLIC "-//W3C//DTD SVG 1.1//EN" "http://www.w3.org/Graphics/SVG/1.1/DTD/svg11.dtd">
<svg viewBox="0 0 16 16" xmlns="http://www.w3.org/2000/svg">
    <rect x="0" y="0" width="16" height="16" style="fill:#fff;"/>
    <rect x="1" y="12" width="14" height="3" style="fill:#000;"/>
    <rect x="1" y="1" width="14" height="3" style="fill:#000;"/>
    <rect x="1.978" y="2" width="12" height="12" style="fill:#fff;"/>
    <rect x="0" y="4" width="16" height="8" style="fill:#fff;"/>
    <g transform="matrix(10.416667,0,0,10.416667,0.65413,10.604167)">
        <path d="M0.3,0.012C0.246,0.012 0.199,0.001 0.158,-0.022C0.116,-0.044 0.084,-0.075 0.06,-0.114C0.037,-0.154 0.025,-0.199 0.025,-0.25C0.025,-0.301 0.037,-0.347 0.06,-0.386C0.083,-0.425 0.116,-0.456 0.157,-0.479C0.198,-0.501 0.245,-0.512 0.298,-0.512C0.349,-0.512 0.396,-0.499 0.439,-0.473C0.482,-0.447 0.512,-0.409 0.531,-0.36L0.383,-0.31C0.376,-0.326 0.364,-0.34 0.347,-0.35C0.33,-0.36 0.311,-0.365 0.29,-0.365C0.269,-0.365 0.251,-0.36 0.236,-0.351C0.22,-0.341 0.208,-0.327 0.199,-0.31C0.19,-0.292 0.185,-0.273 0.185,-0.25C0.185,-0.227 0.19,-0.208 0.199,-0.191C0.208,-0.173 0.22,-0.16 0.237,-0.15C0.253,-0.14 0.271,-0.135 0.292,-0.135C0.312,-0.135 0.331,-0.14 0.348,-0.151C0.365,-0.161 0.377,-0.175 0.385,-0.193L0.533,-0.143C0.514,-0.093 0.483,-0.055 0.441,-0.028C0.399,-0.001 0.352,0.012 0.3,0.012Z" style="fill-rule:nonzero;"/>
    </g>
    <g transform="matrix(10.416667,0,0,10.416667,6.362463,10.604167)">
        <path d="M0.051,-0L0.051,-0.5L0.198,-0.5L0.204,-0.437C0.22,-0.461 0.24,-0.48 0.264,-0.493C0.287,-0.506 0.313,-0.512 0.342,-0.512C0.383,-0.512 0.417,-0.504 0.444,-0.487C0.471,-0.47 0.491,-0.444 0.504,-0.409C0.519,-0.442 0.54,-0.468 0.567,-0.486C0.593,-0.503 0.624,-0.512 0.657,-0.512C0.717,-0.512 0.762,-0.494 0.792,-0.457C0.823,-0.42 0.838,-0.363 0.837,-0.286L0.837,-0L0.681,-0L0.681,-0.256C0.681,-0.283 0.679,-0.304 0.673,-0.319C0.667,-0.335 0.659,-0.346 0.648,-0.354C0.638,-0.361 0.625,-0.365 0.61,-0.366C0.581,-0.367 0.559,-0.359 0.544,-0.342C0.53,-0.324 0.522,-0.299 0.522,-0.264L0.522,-0L0.366,-0L0.366,-0.256C0.366,-0.283 0.363,-0.304 0.357,-0.319C0.352,-0.335 0.344,-0.346 0.333,-0.354C0.322,-0.361 0.31,-0.365 0.295,-0.366C0.266,-0.367 0.244,-0.359 0.229,-0.342C0.214,-0.324 0.207,-0.299 0.207,-0.264L0.207,-0L0.051,-0Z" style="fill-rule:nonzero;"/>
    </g>
    <g transform="matrix(10.416667,0,0,10.416667,15.539547,10.604167)">
    </g>
</svg>
